{
    "asset" : {
        "generator" : "Khronos glTF Blender I/O v3.4.50",
        "version" : "2.0"
    },
    "scene" : 0,
    "scenes" : [
        {
            "name" : "Scene",
            "nodes" : [
                1
            ]
        }
    ],
    "nodes" : [
        {
            "mesh" : 0,
            "name" : "childrens_chair",
            "translation" : [
                0,
                26.664966583251953,
                0
            ]
        },
        {
            "children" : [
                0
            ],
            "name" : "childrens_chair_grp"
        }
    ],
    "materials" : [
        {
            "doubleSided" : true,
            "name" : "childrens_chair_mat.001",
            "normalTexture" : {
                "index" : 0
            },
            "pbrMetallicRoughness" : {
                "baseColorTexture" : {
                    "index" : 1
                },
                "metallicRoughnessTexture" : {
                    "index" : 2
                }
            }
        }
    ],
    "meshes" : [
        {
            "name" : "Mesh",
            "primitives" : [
                {
                    "attributes" : {
                        "POSITION" : 0,
                        "TEXCOORD_0" : 1,
                        "NORMAL" : 2
                    },
                    "indices" : 3,
                    "material" : 0
                }
            ]
        }
    ],
    "textures" : [
        {
            "sampler" : 0,
            "source" : 0
        },
        {
            "sampler" : 0,
            "source" : 1
        },
        {
            "sampler" : 0,
            "source" : 2
        }
    ],
    "images" : [
        {
            "mimeType" : "image/png",
            "name" : "childrens_chair_Normal",
            "uri" : "childrens_chair_Normal.png"
        },
        {
            "mimeType" : "image/png",
            "name" : "childrens_chair_mat_bcolor",
            "uri" : "childrens_chair_mat_bcolor.png"
        },
        {
            "mimeType" : "image/png",
            "name" : "childrens_chair_Metallic-childrens_chair_Roughness",
            "uri" : "childrens_chair_Metallic-childrens_chair_Roughness.png"
        }
    ],
    "accessors" : [
        {
            "bufferView" : 0,
            "componentType" : 5126,
            "count" : 4852,
            "max" : [
                15,
                26.66496467590332,
                12.5
            ],
            "min" : [
                -15,
                -26.664966583251953,
                -12.5
            ],
            "type" : "VEC3"
        },
        {
            "bufferView" : 1,
            "componentType" : 5126,
            "count" : 4852,
            "type" : "VEC2"
        },
        {
            "bufferView" : 2,
            "componentType" : 5126,
            "count" : 4852,
            "type" : "VEC3"
        },
        {
            "bufferView" : 3,
            "componentType" : 5123,
            "count" : 7296,
            "type" : "SCALAR"
        }
    ],
    "bufferViews" : [
        {
            "buffer" : 0,
            "byteLength" : 58224,
            "byteOffset" : 0,
            "target" : 34962
        },
        {
            "buffer" : 0,
            "byteLength" : 38816,
            "byteOffset" : 58224,
            "target" : 34962
        },
        {
            "buffer" : 0,
            "byteLength" : 58224,
            "byteOffset" : 97040,
            "target" : 34962
        },
        {
            "buffer" : 0,
            "byteLength" : 14592,
            "byteOffset" : 155264,
            "target" : 34963
        }
    ],
    "samplers" : [
        {
            "magFilter" : 9729,
            "minFilter" : 9987
        }
    ],
    "buffers" : [
        {
            "byteLength" : 169856,
            "uri" : "childrens_chair.bin"
        }
    ]
}
